<svg width="140" height="46" viewBox="0 0 140 46" fill="none" xmlns="http://www.w3.org/2000/svg">
<g clip-path="url(#clip0_2151_1148)">
<path d="M16.7273 39.309C25.9655 39.309 33.4545 31.82 33.4545 22.5818C33.4545 13.3435 25.9655 5.85449 16.7273 5.85449C7.48905 5.85449 0 13.3435 0 22.5818C0 31.82 7.48905 39.309 16.7273 39.309Z" fill="#3758F9"/>
<path fill-rule="evenodd" clip-rule="evenodd" d="M10.5175 25.6612C8.74328 22.7044 9.0391 20.0428 11.4046 17.6774C14.9529 14.1289 18.0578 16.3467 20.2756 15.0161C21.7542 14.1289 22.3456 12.6506 22.0497 10.5806C23.8239 13.5374 23.5282 16.1989 21.1627 18.5644C17.6142 22.1128 14.5094 19.8951 12.2917 21.2257C10.813 22.1128 10.2217 23.5912 10.5175 25.6612ZM11.4046 35.4193C9.63041 32.4625 9.92614 29.801 12.2917 27.4354C15.8401 23.887 18.9449 26.1047 21.1627 24.7742C22.6413 23.887 23.2326 22.4086 22.9369 20.3387C24.711 23.2955 24.4152 25.957 22.0497 28.3225C18.5014 31.8709 15.3965 29.6532 13.1788 30.9838C11.7001 31.8709 11.1088 33.3493 11.4046 35.4193Z" fill="white"/>
<path d="M45 12H50V20H55V12H60V30H55V22H50V30H45V12Z" fill="#111928"/>
<path d="M65 12H70V25H75V12H80V30H75V27H70V30H65V12Z" fill="#111928"/>
<path d="M85 12H90V20H95V12H100V30H95V22H90V30H85V12Z" fill="#111928"/>
<path d="M105 12H110V25H115V12H120V30H115V27H110V30H105V12Z" fill="#111928"/>
<path d="M125 12H130V20H135V12H140V30H135V22H130V30H125V12Z" fill="#111928"/>
</g>
<defs>
<clipPath id="clip0_2151_1148">
<rect width="140" height="46" fill="white"/>
</clipPath>
</defs>
</svg>
